# xmcd
#
# Track frame offsets:
#	151
#	14309
#	29617
#	43051
#	54914
#
# Disc length: 850 seconds
#
# Revision: 1
# Processed by: cddbd v1.5.2PL0 Copyright (c) Steve Scherf et al.
# Submitted via: audiograbber 1.83.01
#
DISCID=38035005
DTITLE=Vissia Sisters - ' the' Vissia Sisters
DYEAR=2003
DGENRE=Country
TTITLE0=Summer Days
TTITLE1=Ghost Riders in the Sky
TTITLE2=Rocky Top
TTITLE3=Angel Band
TTITLE4=How Does She Yodel
EXTD=www.vissiasisters.com\nAlberta Girls :-}
EXTT0=
EXTT1=
EXTT2=
EXTT3=
EXTT4=
PLAYORDER=
